<svg xmlns="http://www.w3.org/2000/svg" width="28" height="28" viewBox="0 0 28 28"><defs><style>.a{fill:none;stroke:#0864b1;stroke-linecap:round;stroke-linejoin:round;stroke-width:3px;}</style></defs><g transform="translate(-1.5 -1.5)"><path class="a" d="M9.25,3h12.5A6.25,6.25,0,0,1,28,9.25v12.5A6.25,6.25,0,0,1,21.75,28H9.25A6.25,6.25,0,0,1,3,21.75V9.25A6.25,6.25,0,0,1,9.25,3Z"/><path class="a" d="M22.011,16.2A5,5,0,1,1,17.8,11.989,5,5,0,0,1,22.011,16.2Z" transform="translate(-1.511 -1.489)"/><path class="a" d="M26.25,9.75h0" transform="translate(-3.875 -1.125)"/></g></svg>