<svg xmlns="http://www.w3.org/2000/svg" xmlns:xlink="http://www.w3.org/1999/xlink" width="688.337" height="800.334" viewBox="0 0 688.337 800.334"><defs><style>.a{fill:#87aedd;opacity:0.25;}.b{isolation:isolate;}.c{fill:#adcdfc;}.d{fill:#e2edff;}.e{fill:#c7d8f2;}.f{fill:#7baeff;}.g{fill:#4da5dc;}.h{fill:#3aaeef;}.i{fill:#e1e8f2;}.j{fill:#e16b40;}.k{fill:#ff8654;}.l{fill:#0046a6;}.m{fill:#003783;}.n{fill:#ff9f75;}.o{fill:#cfdae4;}.p{fill:#00a5ff;}.q{fill:#382747;}.r{fill:#94a3c0;}.s{fill:#fff;}.t{fill:#ff5668;}.u{fill:#b391ff;}.v{fill:#d4d9df;}.w{fill:#f2f8fd;}.x{fill:url(#a);}.y{fill:url(#b);}.z{fill:#05ccff;}.aa{fill:#540cc7;}.ab{fill:#3f0995;}.ac{fill:#7974f5;}.ad{fill:#2689fd;}.ae{fill:#3548db;}.af{fill:#58affb;}.ag{fill:#ee2c6a;}.ah{fill:#ee428c;}.ai{fill:#ff3d9d;}.aj{fill:#7cccff;}.ak{fill:#3eabff;}.al{fill:#cc096a;}.am,.au{fill:none;}.an{fill:#3278cc;}.ao{fill:#e2a029;}.ap{fill:#ffbe3d;}.aq{fill:url(#c);}.ar{fill:url(#d);}.as{fill:#343996;}.at{fill:#1ae5ff;}.au{stroke:#16c5dc;stroke-miterlimit:10;}.av{fill:#f1f1f1;}.aw{fill:#fdb913;}.ax{opacity:0.53;}.ay{fill:#ff4272;}.az{fill:#212973;}.ba{fill:#1ce5ff;}.bb{fill:#00a935;}.bc{fill:#61e041;}.bd{fill:#00cc41;}.be{fill:#14347c;}.bf{fill:#18388f;}.bg{fill:#ce7c56;}.bh{fill:#ffaa83;}.bi{fill:#4d2c63;}</style><linearGradient id="a" x1="0.849" y1="-3.15" x2="0.723" y2="-0.46" gradientUnits="objectBoundingBox"><stop offset="0" stop-color="#c6e6ff"/><stop offset="1" stop-color="#8d9fff"/></linearGradient><linearGradient id="b" x1="3.851" y1="1.526" x2="4.26" y2="-0.056" gradientUnits="objectBoundingBox"><stop offset="0" stop-color="#1ae5ff"/><stop offset="1" stop-color="#eaeeee"/></linearGradient><linearGradient id="c" x1="-2.333" y1="2.414" x2="-2.125" y2="-0.334" gradientUnits="objectBoundingBox"><stop offset="0" stop-color="#1ae5ff"/><stop offset="0.259" stop-color="#63e8f8"/><stop offset="0.704" stop-color="#eaeeee"/></linearGradient><linearGradient id="d" x1="-44.413" y1="0.5" x2="-43.413" y2="0.5" gradientUnits="objectBoundingBox"><stop offset="0" stop-color="#5155d4"/><stop offset="1" stop-color="#45f7ff"/></linearGradient></defs><g transform="translate(-76.974 -52.183)"><path class="a" d="M701.618,541.116c-28.424-16.412-68.3-22.073-104.552-16.991l128.642-74.758c14.052-8.167,13.978-21.405-.166-29.57L431.086,249.791c-14.144-8.165-37-8.165-51.05,0L279.413,308.267c-43.536-19.222-105.838-17.349-145.42,5.655s-42.655,59.12-9.334,84.279L87.493,419.8c-14.052,8.167-13.976,21.405.166,29.57L382.117,619.375c14.142,8.165,37,8.165,51.048,0l82.631-48.02c-8.672,21.023,1.21,44.115,29.636,60.527,43.409,25.062,113.621,25.062,156.748,0S745.026,566.178,701.618,541.116Z" transform="translate(0.031 201.839)"/><g transform="translate(110.47 192.009)"><g transform="translate(24.796 302.725)"><g transform="translate(0 23.041)"><g class="b"><path class="c" d="M227.616,298.171c-1.161,12.9-13.3,21.664-24.259,26.387-11.932,5.141-25.049,7.214-37.994,7.05-13.212-.17-26.7-2.7-38.615-8.559-10.4-5.117-21.43-14.395-21.4-27.015-.025,9.19.618,16.784,7.241,23.959,8.526,9.237,21.362,14.21,33.436,16.7,23.558,4.864,55.633,2.514,73.528-15.621,7.2-7.3,8.183-14.989,8.21-24.692Q227.731,297.282,227.616,298.171Z" transform="translate(-105.353 -260.738)"/><g transform="translate(0)"><path class="d" d="M209.686,289.233c23.979,13.844,24.133,36.3.31,50.14s-62.61,13.844-86.589,0-24.078-36.293-.255-50.138S185.706,275.389,209.686,289.233Z" transform="translate(-105.353 -278.85)"/></g></g></g><g transform="translate(53.18)"><g class="b"><g transform="translate(9.421 5.439)"><path class="e" d="M145.341,270.281l-.152,53.5-9.36,5.439.152-53.5Z" transform="translate(-135.829 -270.281)"/></g><g transform="translate(0 5.44)"><path class="f" d="M140.816,275.721l-.152,53.5-9.421-5.439.152-53.5Z" transform="translate(-131.243 -270.281)"/></g><g transform="translate(0.152)"><path class="g" d="M150.1,273.072l-9.36,5.44-9.421-5.439,9.36-5.44Z" transform="translate(-131.317 -267.633)"/></g></g></g></g><path class="h" d="M119.953,195.427s-19.185,5.117-24.3,16.628-3.837,98.478,23.02,134.291,76.738,40.925,88.249,35.811,78.016-38.37,83.132-55-20.463-29.416-34.533-35.811S232.5,276,224.828,252.98s-11.511-62.668-20.463-69.064S173.669,167.29,119.953,195.427Z" transform="translate(-93.281 -60.74)"/><g transform="translate(24.876)"><path class="i" d="M191.971,188.281S160.5,162.229,154.1,161.623c-7.678-.6-17.256,2.009-19.756,12.893s3.3,19.167,9.071,22.334,56.417,27.2,65.371,27.153,14.666-7.75,8.861-17.312S191.971,188.281,191.971,188.281Z" transform="translate(-75.503 -76.735)"/><g transform="translate(0 5.126)"><g transform="translate(8.076)"><path class="j" d="M151.169,165.7a3.221,3.221,0,0,0,.064,1.035c.468,2.335,1.937,8.3,2.28,10.8.327,2.4-2.2,6.709-8.715,6.9s-17.688-1.988-21.744-9.562c.23-1.393-.943-15.73-2.212-22.843Z" transform="translate(-97.182 -91.888)"/><path class="k" d="M177.3,149.2c-4.706-19.719-21.03-30.24-38.658-25.189,0,0-19.236,2.888-26.988,20.292s5.567,31.06,14.089,39.664c3.588,3.529,6.3,6.255,8.015,7.992.622.655,1.234,1.323,1.879,1.916l.183.187.018-.019a40.472,40.472,0,0,0,17.018,9.219c7.892,1.931,17.024.154,21.726-5.386S182.013,168.917,177.3,149.2Z" transform="translate(-109.323 -122.751)"/></g><path class="l" d="M140.791,159.883s-30.984,24.53-33.783,32.317-2.432,29.067,4.885,42.9,7.467,66.057,10.353,76.132,30.53,11.934,47.375,7.808,43.6-18.23,38.226-37.353c-7.943-28.241-6.055-56.69-5.417-65.677s-1.641-31.366-6.53-46.2c-1.031-3.13-12.068-7.5-12.068-7.5S172.384,156.981,140.791,159.883Z" transform="translate(-105.391 -84.523)"/><path class="m" d="M146.408,263.738c-12.789-16.2,5.969-71.621-16.2-86.969-6.76-4.681-12.563-5.862-17.373-5.256-2.972,3.118-5.174,5.854-5.827,7.672-2.8,7.791-2.432,29.067,4.885,42.9s7.467,66.057,10.353,76.132c2.627,9.169,25.748,11.517,42.585,8.754l24.211-25.329S159.2,279.939,146.408,263.738Z" transform="translate(-105.391 -71.507)"/><path class="i" d="M128.182,161.829c26.937-2.475,39.336,2.159,42.415,3.582a79.719,79.719,0,0,1-.392,19.132c-2.107,12.731-7.179,47.7-7.179,47.7s-16.62-28.732-27.562-40.56c-7.7-8.321-15.282-16.164-19.107-20.089C122.813,166.087,128.182,161.829,128.182,161.829Z" transform="translate(-93.833 -82.313)"/><path class="k" d="M151.169,165.7a3.221,3.221,0,0,0,.064,1.035c.468,2.335,1.937,8.3,2.28,10.8.327,2.4-2.2,6.709-8.715,6.9s-17.688-1.988-21.744-9.562c.23-1.393-.943-15.73-2.212-22.843Z" transform="translate(-89.106 -91.888)"/><g transform="translate(8.076)"><path class="n" d="M177.3,149.2c-4.706-19.719-21.03-30.24-38.658-25.189,0,0-19.236,2.888-26.988,20.292s5.567,31.06,14.089,39.664c3.588,3.529,6.3,6.255,8.015,7.992.622.655,1.234,1.323,1.879,1.916l.183.187.018-.019a40.472,40.472,0,0,0,17.018,9.219c7.892,1.931,17.024.154,21.726-5.386S182.013,168.917,177.3,149.2Z" transform="translate(-109.323 -122.751)"/></g><path class="o" d="M156.967,181.44l-12.006-10.634-9.6,16.808-9.685-6.115c10.942,11.842,27.537,40.531,27.537,40.531s4.229-29.174,6.569-43.928Z" transform="translate(-84.015 -72.097)"/><path class="p" d="M148.634,202.038l-5.349-18.883.809-6.468-6.641-5.881-4.661,8.155,5.347,4.88,1.452,28.036c3.646,5.9,6.109,10.153,6.109,10.153S147.044,212.765,148.634,202.038Z" transform="translate(-76.508 -72.097)"/></g><path class="j" d="M110.87,144.953a29.326,29.326,0,0,0,1.919,28.775c9.593,14.709,19.873,21.254,22.406,20.859s3.812-1.035,3.174-2.954-3.837-8.313-3.837-8.313-10.87-1.28-10.87-8.313,3.835-8.313,8.313-6.4,5.115,5.117,7.674,7.674,3.2,8.954,5.115,8.315,3.2-2.559,3.2-5.755,0-7.035-3.837-10.872.639-10.231-3.2-15.348a37.623,37.623,0,0,0-6.394-7.033s2.557,3.837,15.348,1.278,18.544-1.916,23.661-5.115,3.837-10.231.639-12.791-10.87-3.837-19.824-7.033-14.068-1.28-24.941,1.28S108.313,137.279,110.87,144.953Z" transform="translate(-102.679 -120.255)"/></g><path class="q" d="M209.291,319.7s-.425,6.4,6.4,11.086,8.1,7.672,13.641,9.8,10.659,9.379,8.1,14.5-14.5,5.969-22.17,3.837-8.954-8.954-16.2-11.511a26.777,26.777,0,0,1-11.936-7.674c-2.132-2.132-1.28-10.659-1.28-10.659l26.007-8.524" transform="translate(4.109 89.969)"/><path class="q" d="M225.48,307.657s-.425,6.4,6.394,11.086,8.1,7.674,13.643,9.8,10.659,9.381,8.1,14.5-14.494,5.969-22.168,3.837-8.954-8.952-16.2-11.511a26.765,26.765,0,0,1-11.936-7.674c-2.132-2.13-1.28-10.657-1.28-10.657l26-8.526" transform="translate(21.174 77.28)"/><path class="r" d="M114.568,238.576a46.721,46.721,0,0,1,1.278,9.593c0,4.476-3.2,17.266,3.2,32.615s49.24,18.544,63.309,24.939,22.381,12.15,24.941,14.068,6.181,28.991,17.264,45.192,29.844,48.6,34.106,62.242c0,0,12.131,2.861,23.022-4.264,5.7-3.73,5.117-5.967,5.117-5.967s-22.17-48.6-27.286-69.066-11.084-44.337-20.463-50.3-39.22-27.284-46.042-31.549-25.2-17.741-28.8-25.924S125.652,218.752,114.568,238.576Z" transform="translate(-70.843 -6.475)"/><path class="r" d="M131.691,228.3a46.721,46.721,0,0,1,1.278,9.592c0,4.478-3.2,17.267,3.2,32.615s49.24,18.544,63.309,24.938,22.381,12.152,24.941,14.07,6.181,28.989,17.264,45.19,29.844,48.6,34.106,62.242c0,0,12.131,2.861,23.022-4.262,5.7-3.732,5.115-5.969,5.115-5.969s-22.168-48.6-27.284-69.064-11.084-44.337-20.463-50.306-39.223-27.284-46.042-31.549-25.2-17.741-28.8-25.922S142.775,208.478,131.691,228.3Z" transform="translate(-52.794 -17.304)"/></g><g transform="translate(76.974 284.367)"><g transform="translate(239.02 267.115)"><g class="b"><g transform="translate(22.901 13.222)"><path class="e" d="M227.608,301.7l-.369,130.056-22.752,13.222.368-130.056Z" transform="translate(-204.487 -301.697)"/></g><g transform="translate(0 13.222)"><path class="f" d="M216.608,314.919l-.368,130.056-22.9-13.222.369-130.056Z" transform="translate(-193.338 -301.697)"/></g><g transform="translate(0.369)"><path class="g" d="M239.171,308.482,216.419,321.7l-22.9-13.222L216.27,295.26Z" transform="translate(-193.517 -295.26)"/></g></g></g><path class="c" d="M569.074,258.87c-.033.378-.06.756-.129,1.134-.057.31-.15.616-.232.926-.095.359-.181.719-.308,1.074-.1.3-.244.59-.372.881-.164.378-.327.754-.526,1.124-.146.271-.321.536-.485.8-.261.423-.538.844-.848,1.259s-.608.8-.953,1.189c-.08.092-.154.187-.236.277-.466.507-.978,1-1.52,1.493-.347.312-.733.614-1.111.916-.333.267-.651.538-1.009.8-.409.3-.859.581-1.3.867s-.883.6-1.37.881L266.131,442.5a40.841,40.841,0,0,1-7.91,3.478,52.332,52.332,0,0,1-6.834,1.7q-2.271.407-4.6.641c-1.327.131-2.664.22-4,.267q-1.846.062-3.7.016-1.784-.043-3.556-.191l-.06,20.851q1.772.148,3.556.191,1.849.046,3.7-.016,2.012-.068,4-.267c1.553-.154,3.091-.368,4.6-.641a52.248,52.248,0,0,0,6.834-1.7,40.72,40.72,0,0,0,7.91-3.478L558.615,293.343c.15-.086.3-.173.442-.261.329-.2.61-.411.922-.614.444-.29.9-.575,1.308-.873.355-.259.674-.528,1-.795.38-.3.766-.606,1.113-.918.07-.064.154-.121.222-.185.464-.427.891-.865,1.3-1.306.086-.092.158-.187.24-.281.24-.271.485-.542.7-.82.1-.119.158-.246.249-.368.31-.415.587-.836.848-1.259.111-.179.255-.349.357-.53.049-.088.078-.183.127-.273.2-.37.362-.746.526-1.122.1-.22.224-.435.308-.657.027-.074.037-.15.064-.224.127-.359.216-.719.31-1.08.064-.242.16-.483.21-.727.012-.064.01-.129.021-.193.07-.38.1-.758.131-1.138.021-.247.076-.493.084-.739,0-.107,0-.212,0-.318l.06-20.851C569.165,258.163,569.107,258.517,569.074,258.87Z" transform="translate(90.09 -67.621)"/><path class="c" d="M399.081,448.126c-1.206-.17-2.4-.378-3.578-.622q-1.916-.4-3.765-.922c-1.506-.429-2.97-.922-4.383-1.479a39.279,39.279,0,0,1-5.207-2.5L87.69,272.6c-7.117-4.108-10.671-9.5-10.657-14.888l-.06,20.851c-.014,5.386,3.539,10.78,10.657,14.89l294.458,170a39.28,39.28,0,0,0,5.207,2.5c1.413.557,2.878,1.05,4.383,1.479q1.846.527,3.765.924,1.765.364,3.58.622c1.159.164,2.331.294,3.508.39l.06-20.851Q400.823,448.373,399.081,448.126Z" transform="translate(-76.974 -67.725)"/><g transform="translate(0.06)"><path class="d" d="M725.542,341.346c14.144,8.167,14.218,21.405.166,29.57L433.165,540.924c-14.05,8.165-36.906,8.165-51.048,0L87.659,370.918c-14.142-8.165-14.218-21.4-.166-29.568L380.036,171.342c14.052-8.165,36.906-8.165,51.05,0Z" transform="translate(-77.003 -165.219)"/></g></g><g transform="translate(151.309 366.553)"><g transform="translate(257.789 122.781)"><path class="s" d="M238.664,297.742l80.61,46.845,56.7-32.737L295.367,265Z" transform="translate(-238.664 -265.004)"/><g transform="translate(34.255 18.025)"><g transform="translate(5.513)"><path class="t" d="M286.768,276.833l-12.682,7.37-16.061-4.731c4.484-5.129,15.307-7.169,24.178-4.554A19.9,19.9,0,0,1,286.768,276.833Z" transform="translate(-258.025 -273.779)"/></g><g transform="translate(0 4.013)"><path class="u" d="M292.505,275.733c8.522,4.922,8.565,12.9.1,17.821s-22.244,4.922-30.768,0c-6.819-3.938-8.42-9.671-4.083-14.631l19.417,5.721Z" transform="translate(-255.341 -275.733)"/></g></g><g transform="translate(59.225 35.983)"><path class="c" d="M268.029,303.6c-.707.409-.709,1.058-.008,1.467a2.764,2.764,0,0,0,2.531,0l35.985-20.775c.707-.409.711-1.058.008-1.467a2.764,2.764,0,0,0-2.531,0Z" transform="translate(-267.497 -282.522)"/><g transform="translate(24.871 2.413)"><path class="v" d="M280.129,292.817a.776.776,0,0,0-.008,1.465,2.815,2.815,0,0,0,2.543.008l15.27-8.816a.779.779,0,0,0,0-1.475,2.8,2.8,0,0,0-2.531,0Z" transform="translate(-279.605 -283.697)"/></g><g transform="translate(20.119 4.67)"><path class="v" d="M277.831,298.9c-.707.409-.723,1.066-.021,1.473a2.8,2.8,0,0,0,2.543-.006l23.893-13.8c.707-.409.711-1.058.008-1.467a2.777,2.777,0,0,0-2.531,0Z" transform="translate(-277.292 -284.795)"/></g></g></g><g transform="translate(246.462 198.203)"><g transform="translate(0.015)"><path class="w" d="M339.379,325.758c1.96,1.132,1.968,2.964.023,4.094l-57.539,33.408a7.769,7.769,0,0,1-7.068,0l-40.161-23.186c-1.958-1.13-1.972-2.962-.023-4.094l57.539-33.407a7.781,7.781,0,0,1,7.068,0Z" transform="translate(-233.157 -301.723)"/></g><g transform="translate(0 3.604)"><path class="x" d="M340.849,314.575c0,.051-.008.1-.016.156s-.023.086-.033.127-.027.1-.043.15-.033.08-.051.121a1.56,1.56,0,0,1-.074.156c-.018.037-.043.074-.066.111-.037.06-.074.117-.117.175-.027.035-.053.068-.082.1a2.412,2.412,0,0,1-.212.228c-.027.027-.053.055-.082.082-.049.043-.1.084-.154.125s-.09.074-.14.111-.119.08-.181.121-.121.082-.189.121l-57.539,33.408a5.337,5.337,0,0,1-.7.333l-.2.074c-.152.053-.31.1-.47.144s-.329.088-.5.123c-.2.041-.4.08-.606.1-.049.006-.1.016-.15.021a8.105,8.105,0,0,1-.838.047h-.134c-.277,0-.555-.016-.83-.045l-.123-.014a7.868,7.868,0,0,1-.8-.138c-.047-.01-.095-.025-.144-.035a7.193,7.193,0,0,1-.692-.212l-.123-.041a5.552,5.552,0,0,1-.762-.361l-40.161-23.186a2.884,2.884,0,0,1-1.385-1.506,1.739,1.739,0,0,1-.092-.557l-.014,2.3a1.811,1.811,0,0,0,.023.279,2.679,2.679,0,0,0,1.454,1.783l40.161,23.186a5.336,5.336,0,0,0,.723.347l.039.014.123.041c.146.053.292.107.446.15.082.023.166.041.249.062.047.01.094.023.142.035s.086.023.131.031c.162.035.329.064.5.086.057.008.119.014.177.021.041.006.082.01.123.014l.185.021c.162.012.327.021.491.025.051,0,.1,0,.154,0h.134c.074,0,.148,0,.224,0,.185-.006.37-.018.553-.035l.064-.01.148-.021c.142-.018.285-.035.425-.06.062-.01.119-.033.181-.045.17-.035.337-.078.5-.123.086-.025.179-.039.263-.066s.136-.053.205-.078l.2-.074a5.337,5.337,0,0,0,.7-.333l57.539-33.407.062-.037c.045-.027.086-.057.129-.086.06-.039.123-.078.179-.119s.095-.074.14-.111.107-.084.154-.125l.031-.027c.02-.019.033-.037.053-.056.076-.074.146-.15.212-.228.012-.016.033-.033.045-.049s.023-.035.035-.051c.043-.057.082-.117.117-.175.014-.025.035-.049.049-.074l.019-.037c.027-.051.049-.1.072-.156.014-.029.031-.06.043-.09l.008-.031a1.372,1.372,0,0,0,.043-.15.806.806,0,0,0,.029-.1l0-.027c.008-.051.012-.1.016-.156a.935.935,0,0,0,.012-.1l0-.045.012-2.3C340.862,314.476,340.853,314.526,340.849,314.575Z" transform="translate(-233.15 -291.936)"/><g transform="translate(6.769)"><path class="y" d="M329.981,324.638a.7.7,0,0,1,0,1.317l-54.614,31.737a2.509,2.509,0,0,1-2.272,0l-36.178-20.888a.7.7,0,0,1-.008-1.319l54.614-31.735a2.5,2.5,0,0,1,2.276,0Z" transform="translate(-236.446 -303.478)"/></g></g></g><g transform="translate(78.734)"><path class="s" d="M151.493,237.967l80.61,46.845,56.7-32.738L208.2,205.23Z" transform="translate(-151.493 -205.23)"/><g transform="translate(34.256 18.025)"><g transform="translate(5.514)"><path class="u" d="M199.6,217.059l-12.682,7.37L170.855,219.7c4.482-5.127,15.307-7.167,24.176-4.554A19.952,19.952,0,0,1,199.6,217.059Z" transform="translate(-170.855 -214.005)"/></g><g transform="translate(0 4.014)"><path class="z" d="M205.334,215.959c8.524,4.922,8.568,12.9.1,17.821s-22.242,4.922-30.766,0c-6.819-3.938-8.422-9.671-4.083-14.633L190,224.87Z" transform="translate(-168.171 -215.959)"/></g></g><g transform="translate(59.226 35.983)"><path class="c" d="M180.859,243.829c-.707.409-.711,1.058-.008,1.467a2.773,2.773,0,0,0,2.529,0l35.985-20.777c.707-.407.711-1.056.008-1.465a2.765,2.765,0,0,0-2.531,0Z" transform="translate(-180.327 -222.748)"/><g transform="translate(24.87 2.413)"><path class="v" d="M192.957,233.041a.778.778,0,0,0-.008,1.467,2.815,2.815,0,0,0,2.543.008l15.27-8.818c.707-.407.7-1.064,0-1.473a2.8,2.8,0,0,0-2.531,0Z" transform="translate(-192.435 -223.923)"/></g><g transform="translate(20.118 4.669)"><path class="z" d="M190.659,239.122c-.707.407-.723,1.064-.021,1.473a2.79,2.79,0,0,0,2.543-.008l23.893-13.8c.707-.407.711-1.056.008-1.465a2.76,2.76,0,0,0-2.529,0Z" transform="translate(-190.121 -225.021)"/></g></g></g><g transform="translate(0 79.08)"><g transform="translate(58.551 43.22)"><g class="b" transform="translate(43.674)"><g transform="translate(94.966 54.829)"><path class="aa" d="M220.345,291.463l-.014,4.843L209.162,302.8l.014-4.843Z" transform="translate(-209.162 -291.463)"/></g><g transform="translate(0 6.491)"><path class="ab" d="M257.909,322.759,257.9,327.6l-94.966-54.829.014-4.843Z" transform="translate(-162.929 -267.93)"/></g><g transform="translate(0.014)"><path class="ac" d="M269.071,319.6,257.9,326.09l-94.966-54.829,11.169-6.491Z" transform="translate(-162.936 -264.77)"/></g></g><g class="b" transform="translate(21.841 12.693)"><g transform="translate(74.598 43.069)"><path class="ad" d="M199.793,291.917l-.014,4.842-11.162,6.486.014-4.842Z" transform="translate(-188.617 -291.917)"/></g><g transform="translate(0 6.486)"><path class="ae" d="M226.912,317.177l-.014,4.842L152.3,278.95l.014-4.843Z" transform="translate(-152.3 -274.107)"/></g><g transform="translate(0.014)"><path class="af" d="M238.067,314.019,226.9,320.505l-74.6-43.069,11.161-6.486Z" transform="translate(-152.307 -270.949)"/></g></g><g class="b" transform="translate(0 25.385)"><g transform="translate(34.136 19.708)"><path class="ag" d="M169.461,286.723l-.014,4.843-11.161,6.486.014-4.843Z" transform="translate(-158.286 -286.723)"/></g><g transform="translate(0 6.486)"><path class="ah" d="M175.817,299.995l-.014,4.843-34.136-19.708.014-4.842Z" transform="translate(-141.667 -280.286)"/></g><g transform="translate(0.014)"><path class="ai" d="M186.972,296.837l-11.161,6.486-34.136-19.708,11.162-6.486Z" transform="translate(-141.674 -277.129)"/></g></g></g><g transform="translate(27.682 28.337)"><path class="c" d="M127.478,290.752c-1.113.643-1.119,1.668-.012,2.311a4.362,4.362,0,0,0,3.987,0l56.719-32.748c1.115-.643,1.119-1.666.014-2.309a4.366,4.366,0,0,0-3.989,0Z" transform="translate(-126.64 -257.524)"/><g transform="translate(39.201 3.803)"><path class="c" d="M146.548,273.751a1.224,1.224,0,0,0-.012,2.309,4.447,4.447,0,0,0,4.01.012l24.07-13.9a1.227,1.227,0,0,0-.008-2.323,4.4,4.4,0,0,0-3.989,0Z" transform="translate(-145.724 -259.376)"/></g><g transform="translate(31.711 7.36)"><path class="c" d="M142.927,283.332c-1.113.643-1.14,1.68-.033,2.323a4.4,4.4,0,0,0,4.007-.012L184.565,263.9c1.113-.643,1.117-1.666.012-2.309a4.366,4.366,0,0,0-3.989,0Z" transform="translate(-142.078 -261.107)"/></g></g><g class="b" transform="translate(9.276)"><path class="aj" d="M165.241,249.189l-9.013,5.238c-8.181-4.466-21.038-4.39-29,.236-.164.1-.318.2-.477.294l-9.075-5.24c.16-.1.318-.193.483-.29C131.1,241.909,152.052,241.831,165.241,249.189Z" transform="translate(-117.679 -243.729)"/><g transform="translate(39.927 6.279)"><path class="aj" d="M146.143,246.786c10.708,6.7,11.815,16.693,3.293,24.045l-9.354-5.4c3.753-4.3,2.763-9.632-2.964-13.4Z" transform="translate(-137.117 -246.786)"/></g><g transform="translate(1.643 25.955)"><path class="ak" d="M167.914,261.679a29.173,29.173,0,0,1-2.933,1.947c-12.75,7.409-33.282,7.592-46.5.555l9.024-5.242c8.2,4.149,20.639,3.968,28.412-.548a16.251,16.251,0,0,0,2.8-2.025Z" transform="translate(-118.479 -256.365)"/></g></g><g transform="translate(0 6.838)"><path class="ak" d="M130.23,252.323c-6.158,4.638-5.669,11.285,1.446,15.629l-9.015,5.238c-12.117-7.243-12.649-18.573-1.549-26.132Z" transform="translate(-113.163 -247.058)"/></g></g></g><g transform="translate(328.863 178.995)"><path class="af" d="M257.448,143.953a16.514,16.514,0,0,1,7.485,12.965l-.082,72.49c-.012,4.757-3.393,6.684-7.534,4.293L237.1,222.03l-.984,1.37-3.944,5.554-3.913-10.09-.972-2.5-20.214-11.671a16.492,16.492,0,0,1-7.473-12.957l.08-72.49c.014-4.759,3.381-6.692,7.522-4.3Z" transform="translate(-199.603 -113.92)"/><g transform="translate(10.018 23.66)"><g transform="translate(0.029)"><path class="s" d="M217.246,132.59l-.006,2.04a1.563,1.563,0,0,1-2.346,1.347l-9.623-5.583a1.561,1.561,0,0,1-.776-1.356l0-2.04a1.563,1.563,0,0,1,2.348-1.347l9.621,5.583A1.561,1.561,0,0,1,217.246,132.59Z" transform="translate(-204.494 -125.438)"/></g><g transform="translate(0 10.149)"><path class="c" d="M247.7,155.094l-.006,2.044a1.563,1.563,0,0,1-2.344,1.349l-40.087-23.145a1.564,1.564,0,0,1-.781-1.358l0-2.044a1.563,1.563,0,0,1,2.344-1.35l40.089,23.145A1.559,1.559,0,0,1,247.7,155.094Z" transform="translate(-204.48 -130.379)"/></g></g><g transform="translate(10.925 52.276)"><path class="s" d="M214.365,144.817l-.007,2.338-5.428,18.536-2.325-1.343,5.405-18.5-7.088-4.093.007-2.389Z" transform="translate(-204.922 -139.369)"/><g transform="translate(11.538 7.075)"><path class="s" d="M219.468,147.551l-.008,2.389-6.125-3.537-.357,7.181c.676-.922,1.7-1,3.114-.185,2.683,1.551,3.862,4.5,3.851,7.912l-.012,4.677c-.01,3.675-1.538,5.187-4.712,3.352a9.622,9.622,0,0,1-4.679-8.775l0-1.592,2.192,1.265-.006,1.773a5.233,5.233,0,0,0,2.428,4.874c1.656.955,2.442.1,2.448-2.06l.012-4.65a5.257,5.257,0,0,0-2.428-4.876c-1.273-.735-2.149-.417-2.354,1.214l0,.54-2.192-1.265.62-12.974Z" transform="translate(-210.539 -142.814)"/></g><g transform="translate(33.289 29.319)"><path class="s" d="M224.156,154.14a6.077,6.077,0,0,1,2.964,5.546l-.021,7.528c-.008,2.338-.928,3.35-2.987,2.163a6.175,6.175,0,0,1-2.985-5.61l.021-7.528C221.157,153.953,222.122,152.965,224.156,154.14ZM225.6,166.5l.023-7.785a3.242,3.242,0,0,0-1.471-3.011c-1.05-.606-1.5-.016-1.5,1.294l-.023,7.785a3.31,3.31,0,0,0,1.493,3.048c1.027.6,1.477-.047,1.481-1.331" transform="translate(-221.128 -153.643)"/></g><g transform="translate(23.074 14.439)"><path class="s" d="M222.124,160.048c-.006,2.311-.972,3.3-3.007,2.124a6.147,6.147,0,0,1-2.962-5.573l.021-7.58c.006-2.286.972-3.3,2.985-2.136a6.186,6.186,0,0,1,2.987,5.585Zm-1.5-.737.021-7.812a3.313,3.313,0,0,0-1.491-3.048c-1.074-.62-1.479.047-1.481,1.333l-.023,7.81a3.182,3.182,0,0,0,1.469,3.011c1.052.606,1.5.016,1.506-1.294" transform="translate(-216.155 -146.399)"/></g><g transform="translate(26.257 19.945)"><path class="s" d="M226,149.08l1.386.8-8.274,19.234L217.7,168.3Z" transform="translate(-217.705 -149.08)"/></g></g></g><g transform="translate(374.007 334.657)"><g transform="translate(0 14.295)"><path class="c" d="M325.914,207.044c23.979,13.844,24.133,36.3.31,50.14s-62.61,13.844-86.59,0-24.078-36.3-.255-50.14S301.935,193.2,325.914,207.044Z" transform="translate(-221.581 -196.661)"/></g><g transform="translate(5.938)"><g transform="translate(83.692 9.846)"><path class="al" d="M280.482,194.5l-.025,8.815-15.241,8.857.025-8.815Z" transform="translate(-265.217 -194.495)"/></g><path class="al" d="M251.033,208.935c.107-.041.207-.086.312-.127.852-.325,1.727-.616,2.615-.9.612-.193,1.243-.364,1.869-.534.479-.129.951-.269,1.436-.386.661-.16,1.335-.294,2.007-.429.493-.1.978-.212,1.475-.3.2-.035.409-.064.612-.1q1.254-.206,2.524-.357c.247-.029.491-.062.737-.088.98-.1,1.966-.189,2.956-.247l.548-.029c.665-.033,1.331-.043,2-.056s1.331-.016,2-.008c.557.006,1.113.025,1.668.045q.924.037,1.847.1.841.062,1.68.142.915.086,1.82.2c.544.068,1.087.146,1.627.23.649.1,1.29.214,1.931.335.67.127,1.341.255,2,.4.158.037.316.07.475.107.928.222,1.842.47,2.742.737.259.076.511.158.768.238q1.122.354,2.21.756c.212.078.427.15.637.232.657.255,1.294.538,1.929.82.314.14.637.265.945.411.918.435,1.812.9,2.67,1.395l.025-10.281c-.859-.5-1.752-.959-2.672-1.395-.3-.146-.624-.271-.937-.409-.544-.242-1.08-.493-1.643-.715-.1-.039-.2-.07-.294-.109-.207-.08-.421-.152-.633-.23q-1.088-.4-2.212-.756c-.257-.08-.509-.162-.768-.238-.173-.051-.339-.111-.514-.16-.733-.21-1.477-.4-2.229-.577-.156-.037-.316-.07-.474-.107-.364-.082-.727-.17-1.095-.246-.3-.062-.606-.1-.906-.158-.641-.121-1.282-.234-1.931-.335-.259-.041-.511-.1-.772-.136-.283-.039-.571-.06-.854-.095-.6-.078-1.21-.144-1.818-.2-.292-.029-.577-.074-.869-.1-.269-.023-.542-.027-.813-.045-.614-.041-1.228-.074-1.847-.1-.308-.012-.616-.041-.926-.049-.246-.006-.493.008-.742,0-.665-.008-1.329,0-1.994.008-.331.006-.661-.006-.992.006s-.672.033-1.007.049c-.183.01-.366.016-.548.029-.83.049-1.66.109-2.483.191-.158.014-.314.039-.472.055-.246.027-.491.06-.737.088q-1.269.151-2.52.357c-.205.033-.413.062-.616.1-.1.016-.2.029-.3.047-.4.07-.779.17-1.171.249-.676.138-1.352.271-2.013.431-.485.117-.955.255-1.43.384-.631.173-1.261.343-1.877.536-.132.041-.269.072-.4.115-.75.242-1.487.505-2.212.781-.1.041-.205.086-.312.127-.795.31-1.569.645-2.329.994-.224.1-.448.21-.668.316-.842.407-1.668.83-2.457,1.29-.15.086-.3.175-.444.261s-.265.171-.4.253c-.224.14-.448.279-.663.421-.2.127-.388.259-.577.39-.21.144-.417.288-.618.433-.183.136-.362.271-.54.407s-.384.3-.571.446c-.171.138-.337.277-.5.417s-.353.306-.526.46c-.07.062-.146.123-.216.187s-.117.121-.181.181c-.288.271-.561.544-.824.822-.09.092-.183.185-.269.277-.333.364-.649.731-.943,1.1l-.041.047c-.068.086-.123.175-.189.259-.177.234-.351.468-.514.7-.088.129-.171.261-.255.392-.14.214-.273.427-.4.643-.035.06-.076.117-.109.177-.049.088-.09.177-.138.265-.1.183-.193.366-.281.548-.074.152-.146.3-.214.458-.082.183-.16.368-.234.553-.033.082-.072.164-.1.247s-.047.148-.074.222c-.064.177-.121.353-.175.53-.049.158-.1.318-.142.479-.047.177-.088.355-.129.532-.021.1-.049.191-.07.288-.012.064-.018.129-.029.2-.035.181-.062.361-.086.544-.023.16-.045.318-.062.479-.018.183-.029.366-.039.55-.006.107-.019.214-.023.32s0,1.678,0,1.785L235,226.343c0-.214.014-.427.027-.641.01-.185.021-.368.039-.55.016-.16.039-.32.062-.479.025-.183.051-.364.084-.544.031-.162.066-.322.1-.483.041-.177.082-.355.129-.532.043-.16.092-.32.142-.481s.111-.351.173-.526c.058-.158.117-.314.179-.472.074-.183.152-.368.232-.551.07-.154.14-.306.216-.46.088-.183.183-.364.281-.546.08-.148.16-.294.246-.442.125-.216.261-.429.4-.643.084-.131.166-.263.255-.392.162-.236.335-.47.514-.7.076-.1.148-.205.23-.308.294-.37.61-.737.943-1.1.086-.092.179-.185.267-.277.265-.277.538-.551.826-.822.129-.123.261-.246.4-.368.171-.154.347-.306.524-.458s.333-.281.505-.419.376-.3.569-.446c.177-.136.355-.271.54-.407q.3-.216.616-.431c.191-.131.382-.265.581-.394.216-.14.438-.279.661-.419.277-.173.553-.345.842-.514.789-.46,1.614-.883,2.457-1.29.22-.107.444-.212.666-.314C249.464,209.58,250.238,209.245,251.033,208.935Z" transform="translate(-213.374 -184.017)"/><g transform="translate(17.133 48.527)"><path class="al" d="M248.078,213.326l-.025,8.814L232.813,231l.025-8.814Z" transform="translate(-232.813 -213.326)"/></g><path class="am" d="M224.472,214.8l.025-8.814c-.025,8.656,5.69,17.326,17.133,23.932l-.025,8.816C230.162,232.127,224.447,223.457,224.472,214.8Z" transform="translate(-224.472 -172.536)"/><g transform="translate(0 33.451)"><path class="al" d="M241.63,229.919l-.025,8.816c-11.443-6.608-17.158-15.278-17.133-23.934l.025-8.814c-.025,8.656,5.69,17.326,17.133,23.932" transform="translate(-224.472 -205.987)"/></g><g transform="translate(0.026)"><path class="t" d="M323.416,199.547,308.176,208.4c-14.263-8.235-37.316-8.235-51.487,0s-14.1,21.588.168,29.825l-15.241,8.855c-22.741-13.13-22.854-34.41-.267-47.535S300.675,186.418,323.416,199.547Z" transform="translate(-224.485 -189.702)"/></g><path class="an" d="M265.242,200.121l-.025,6.117c7.173,4.141,10.755,9.578,10.741,15.009l.025-8.814C276,207,272.414,204.262,265.242,200.121Z" transform="translate(-181.524 -178.719)"/><g transform="translate(83.401 51.476)"><path class="an" d="M280.44,223.619l-.025,6.116-15.34-8.857.025-6.116Z" transform="translate(-265.075 -214.762)"/></g><path class="an" d="M289.84,207.166c-.014.292-.033.585-.062.877-.027.255-.062.507-.1.76-.041.292-.082.581-.135.871-.047.257-.1.511-.16.766-.064.283-.131.567-.207.848-.068.257-.144.511-.224.766-.086.279-.179.561-.277.84-.09.251-.185.5-.283.75q-.176.441-.372.879c-.109.244-.222.489-.341.733q-.216.438-.45.871c-.127.234-.257.47-.392.7-.2.345-.415.688-.637,1.031-.134.205-.263.415-.4.62-.259.378-.538.752-.822,1.124-.123.162-.236.327-.366.487-.468.594-.972,1.177-1.5,1.756-.138.15-.286.3-.427.444q-.629.659-1.315,1.308c-.207.2-.417.392-.633.587-.273.246-.553.489-.838.731-.263.224-.526.446-.8.665-.3.24-.6.477-.91.713-.283.216-.569.433-.863.645-.318.234-.649.462-.982.692-.3.21-.61.419-.924.624-.343.226-.7.448-1.054.668-.444.277-.881.553-1.345.822-.15.088-.3.168-.452.257l-.025,8.814c.15-.088.3-.168.452-.257q.357-.206.709-.417c.218-.131.419-.269.633-.4.357-.224.713-.446,1.058-.672.314-.205.618-.415.922-.622.333-.23.664-.46.986-.694.292-.214.577-.429.861-.645.308-.236.614-.472.91-.713.271-.22.536-.442.8-.663.283-.244.565-.487.838-.733.111-.1.234-.2.343-.3s.189-.193.29-.288q.687-.647,1.315-1.308c.142-.148.29-.294.425-.442.532-.579,1.037-1.165,1.506-1.758.021-.025.045-.049.066-.074.107-.136.2-.275.3-.413.283-.372.561-.746.82-1.124.142-.205.271-.415.4-.622.222-.341.435-.684.637-1.027.055-.095.121-.187.175-.281.078-.14.142-.283.218-.423.156-.29.306-.577.448-.869.119-.244.234-.491.343-.735.132-.292.255-.585.37-.879.053-.131.117-.261.166-.394.045-.117.076-.236.119-.355.1-.279.189-.559.277-.838.078-.257.156-.511.224-.768.076-.281.144-.565.205-.846.035-.154.082-.306.113-.458.021-.1.029-.207.047-.31.053-.288.1-.579.138-.869.035-.255.07-.507.1-.762.029-.292.045-.583.062-.875.01-.171.033-.343.037-.514s.008-.339.008-.509l.025-8.814C289.886,206.484,289.859,206.825,289.84,207.166Z" transform="translate(-173.802 -172.37)"/><g transform="translate(83.426 12.544)"><path class="af" d="M280.618,195.809c22.737,13.126,22.85,34.408.261,47.533-.15.088-.3.168-.452.255l-15.34-8.857c.15-.086.3-.166.452-.255,14.171-8.235,14.1-21.588-.16-29.819Z" transform="translate(-265.087 -195.809)"/></g><path class="ao" d="M275.362,227.081c.635-.242,1.259-.5,1.882-.756.372-.156.744-.31,1.109-.47.659-.29,1.3-.594,1.945-.9.306-.148.616-.29.918-.44.93-.466,1.847-.949,2.738-1.454l.025-1.966c-.889.505-1.806.988-2.736,1.454-.3.152-.616.292-.924.44-.639.308-1.284.61-1.941.9-.366.16-.737.314-1.109.47-.62.259-1.249.514-1.881.756q-.582.225-1.173.44-.974.354-1.968.682c-.417.138-.83.279-1.251.413-.316.1-.637.193-.957.29q-.875.262-1.762.505c-.329.09-.657.181-.988.267-.624.162-1.255.316-1.886.466-.292.07-.581.142-.875.207-.922.21-1.875.407-2.81.585v1.966c.937-.179,1.863-.376,2.787-.585.292-.066.579-.138.869-.205q.949-.225,1.89-.468c.331-.086.659-.177.988-.267.592-.162,1.177-.331,1.76-.505.32-.1.641-.191.959-.29.164-.053.333-.1.5-.152.255-.08.5-.177.756-.261q.992-.33,1.968-.682Q274.778,227.3,275.362,227.081Z" transform="translate(-185.213 -156.611)"/><g transform="translate(69.436 55.627)"><path class="ap" d="M287.606,225.64a73.024,73.024,0,0,1-22.237,7.875l-7.093-11.85a46.085,46.085,0,0,0,13.99-4.883Z" transform="translate(-258.276 -216.783)"/></g><path class="ac" d="M289.707,228.7c-.581.1-1.16.2-1.746.279-.682.1-1.368.179-2.054.263-.583.072-1.167.148-1.754.209-1.083.111-2.171.207-3.264.283-.1.008-.2.018-.294.025-1.208.082-2.422.136-3.636.173-.308.01-.618.012-.926.018q-1.343.028-2.689.023c-.372,0-.742-.006-1.113-.012-.99-.016-1.98-.045-2.97-.092-.187-.008-.376-.012-.565-.023-1.167-.06-2.331-.144-3.49-.244-.306-.027-.612-.06-.916-.088q-1.35-.132-2.687-.3c-.323-.041-.647-.08-.97-.123-1.156-.156-2.307-.327-3.449-.526l-.023,0c-1.134-.2-2.255-.421-3.371-.657-.4-.086-.791-.179-1.185-.269-.766-.175-1.526-.355-2.278-.55q-.619-.157-1.234-.325c-.651-.179-1.3-.37-1.939-.563-.59-.179-1.179-.357-1.76-.548s-1.181-.4-1.764-.6-1.144-.409-1.707-.622c-.857-.329-1.707-.663-2.539-1.019-.082-.035-.168-.068-.251-.1-.974-.423-1.925-.871-2.861-1.333-.226-.111-.452-.224-.676-.339-.939-.477-1.863-.965-2.759-1.483l-.025,3.673c.9.516,1.82,1.006,2.759,1.481.224.115.448.228.676.341.937.46,1.888.908,2.861,1.331l.249.1c.614.263,1.235.524,1.863.77.222.088.452.162.676.246.565.218,1.138.423,1.713.627s1.165.409,1.756.6,1.175.372,1.767.548c.362.109.713.23,1.074.335.283.08.575.148.861.228q.616.166,1.239.327c.752.193,1.51.374,2.274.548.394.09.789.183,1.187.269.175.037.343.08.518.117q1.414.293,2.851.54l.035.006q1.414.246,2.843.448c.2.029.4.049.6.076.322.043.645.082.97.123q1.337.166,2.685.3c.306.029.61.062.918.088.156.012.312.033.47.045q1.5.123,3.017.2c.191.01.382.014.575.023.7.033,1.411.066,2.118.084.281.006.563,0,.842.008q.558.009,1.115.012,1.343.006,2.687-.023c.31-.006.618-.008.928-.019.123,0,.249,0,.372-.006q1.636-.056,3.264-.166c.1-.006.2-.016.294-.025.961-.066,1.921-.142,2.876-.238.132-.012.259-.031.388-.045.587-.062,1.171-.138,1.754-.21.686-.084,1.372-.164,2.052-.263.585-.084,1.167-.183,1.748-.277.5-.082,1.007-.152,1.506-.24.333-.062.663-.123,1-.187l.025-3.671C291.381,228.428,290.543,228.56,289.707,228.7Z" transform="translate(-215.68 -157.616)"/><g transform="translate(17.158 53.661)"><path class="u" d="M285.1,220.959l7.093,11.85c-20.148,3.872-43.271,1.169-59.371-8.126l15.241-8.857C258.111,221.625,272.516,223.332,285.1,220.959Z" transform="translate(-232.825 -215.826)"/></g></g></g><g transform="translate(457.485 52.183)"><path class="aq" d="M284.477,54.175l-.462-.259c-.2-.107-.4-.21-.6-.308s-.394-.191-.589-.277-.388-.168-.579-.246-.392-.152-.587-.22c-.037-.014-.074-.025-.111-.037l-.043-.014c-.144-.047-.286-.1-.427-.14-.2-.062-.4-.115-.6-.164s-.4-.094-.594-.134q-.32-.062-.635-.1c-.146-.018-.285-.029-.427-.043l-.064-.006c-.051,0-.1-.012-.156-.016-.23-.014-.456-.023-.68-.023-.255,0-.505.014-.754.037a7.347,7.347,0,0,0-.834.121l-.021,0-.027.008a7.54,7.54,0,0,0-.967.265,6.915,6.915,0,0,0-1.173.544l-9.617,5.589a7.121,7.121,0,0,1,2.138-.809l.029-.006a8.611,8.611,0,0,1,2.442-.125l.066.006a11.785,11.785,0,0,1,2.681.585l.043.014a16.845,16.845,0,0,1,2.925,1.347L543.531,214.882l9.617-5.589Z" transform="translate(-259.783 -52.183)"/><path class="ar" d="M424.43,153.062c-.008-.234-.018-.468-.033-.7s-.033-.47-.056-.707-.049-.474-.08-.713-.066-.485-.1-.727l0-.021,0-.016c-.037-.232-.078-.464-.121-.7-.047-.251-.1-.5-.154-.756s-.115-.507-.177-.76-.131-.514-.2-.77c-.056-.2-.113-.4-.175-.6l-.012-.047-.037-.121q-.114-.376-.24-.752c-.082-.246-.168-.493-.257-.739s-.175-.472-.267-.707-.185-.47-.283-.7c-.074-.181-.152-.359-.23-.54l-.014-.033-.053-.121q-.154-.354-.32-.7c-.119-.257-.242-.509-.368-.762-.146-.292-.3-.579-.448-.869-.166-.31-.343-.614-.518-.918-.031-.055-.057-.109-.09-.162s-.07-.129-.107-.193c-.343-.581-.7-1.154-1.076-1.713-.3-.444-.6-.881-.918-1.308-.212-.285-.425-.569-.645-.846-.183-.232-.37-.464-.559-.69s-.372-.442-.561-.655-.374-.421-.563-.626c-.039-.041-.078-.078-.115-.119l-.041-.043c-.146-.154-.29-.308-.437-.458q-.3-.308-.61-.6c-.212-.2-.423-.4-.639-.594s-.427-.38-.645-.563c-.109-.092-.218-.179-.329-.267l-.074-.062c-.08-.066-.162-.136-.244-.2-.21-.166-.423-.329-.637-.487s-.419-.3-.631-.448-.411-.277-.618-.409-.409-.255-.614-.376c-.047-.029-.094-.055-.144-.084l-9.617,5.589a22.332,22.332,0,0,1,2.888,2l.072.057a27.655,27.655,0,0,1,2.66,2.487l.041.043A33.857,33.857,0,0,1,410.567,145c.031.053.06.109.09.162a34.766,34.766,0,0,1,1.7,3.371l.019.041a31.925,31.925,0,0,1,1.313,3.56l.014.047a27.615,27.615,0,0,1,.828,3.582l0,.014a22.324,22.324,0,0,1,.285,3.525L414.3,342.879a16.283,16.283,0,0,1-.3,3.126l-.018.088a11.54,11.54,0,0,1-.818,2.555l-.021.049a8.588,8.588,0,0,1-1.089,1.684c-.134.166-.261.345-.4.5a7.147,7.147,0,0,1-1.586,1.306l9.617-5.589a7.108,7.108,0,0,0,1.586-1.308c.144-.152.269-.329.4-.5a8.187,8.187,0,0,0,.524-.647,9.357,9.357,0,0,0,.546-.994l.021-.045.018-.045c.109-.236.214-.479.31-.733s.175-.5.253-.764c.07-.24.136-.487.193-.742.023-.1.043-.212.064-.318l.018-.088c.021-.1.043-.2.062-.3.039-.226.072-.458.1-.694s.053-.46.072-.7.033-.454.043-.686.014-.464.016-.7v-.043l.52-183.573C424.44,153.5,424.436,153.282,424.43,153.062Z" transform="translate(-116.612 28.44)"/><g transform="translate(0 5.59)"><path class="as" d="M545.969,212.015c8.015,4.628,14.485,15.835,14.461,25.045l-.522,183.573c-.025,9.213-6.538,12.924-14.555,8.294L276.68,273.81c-8.015-4.628-14.485-15.835-14.459-25.045l.52-183.575c.027-9.21,6.538-12.922,14.555-8.294Z" transform="translate(-262.221 -54.904)"/></g><g transform="translate(116.704 38.046)"><path class="ad" d="M408.225,120.089a10.01,10.01,0,0,1,4.546,7.873l-.162,57.7c-.008,2.894-2.056,4.061-4.577,2.607l-84.449-48.758a10.01,10.01,0,0,1-4.546-7.871l.164-57.7c.008-2.894,2.054-4.061,4.574-2.607Z" transform="translate(-319.037 -70.705)"/></g><g transform="translate(29.609 52.641)"><g transform="translate(0.037)"><path class="s" d="M293.029,86.995l-.006,2.619a2.007,2.007,0,0,1-3.013,1.73l-12.355-7.169a2.006,2.006,0,0,1-1-1.742l.008-2.619a2.007,2.007,0,0,1,3.013-1.73l12.355,7.169A2,2,0,0,1,293.029,86.995Z" transform="translate(-276.654 -77.811)"/></g><g transform="translate(0 13.033)"><path class="at" d="M332.133,115.89l-.008,2.625a2.005,2.005,0,0,1-3.009,1.732L277.64,90.526a2,2,0,0,1-1-1.742l.008-2.625a2.006,2.006,0,0,1,3.009-1.732l51.477,29.72A2.008,2.008,0,0,1,332.133,115.89Z" transform="translate(-276.636 -84.156)"/></g></g><path class="au" d="M273.1,146.729l20.493-10.452,13.4,21.653,14.951,15.209,14.951-9.022,31.965-10.311L383.3,174.428l14.436,11.858,13.147,19.333,17.787-37.378,21.653,10.311,11.342-9.28,23.458,6.187,34.8-3.093" transform="translate(-250.758 36.458)"/><g transform="translate(123.947 62.544)"><path class="av" d="M342.132,85.3c-7.781-4.49-15.145-3.344-18.187,3.734-3.808,8.849.522,23.755,9.687,34.067l2.128-4.95c-6.21-7.245-9.1-17.482-6.468-23.6,2.149-4.989,7.337-5.795,12.821-2.629a22.244,22.244,0,0,1,4.022,3.022l2.126-4.95A32.049,32.049,0,0,0,342.132,85.3Z" transform="translate(-322.563 -82.632)"/><g transform="translate(11.069 7.354)"><path class="aw" d="M342.581,86.212l-2.124,4.946c.335.312.67.639,1,.982,7.058,7.271,10.5,18.441,7.7,24.959-.1.232-.212.456-.329.678-.039.078-.084.154-.129.232-2.042,3.593-5.953,4.47-10.289,2.732a15.951,15.951,0,0,1-2.06-1.007c-.185-.107-.37-.22-.557-.335-.339-.212-.6-.386-.85-.559l-.117-.082c-.557-.394-1.109-.82-1.666-1.3-.068-.06-.138-.121-.21-.183-.205-.179-.409-.364-.614-.555-.076-.07-.152-.138-.228-.214-.267-.251-.534-.514-.8-.783-.427-.442-.836-.894-1.237-1.356l-2.128,4.95c.407.454.816.906,1.239,1.341.378.386.756.76,1.14,1.119.107.1.214.205.325.306.29.269.583.532.877.789.1.086.2.175.294.257.789.67,1.584,1.288,2.372,1.84.062.045.123.086.187.127.359.255.721.489,1.078.717l.125.076c.244.154.491.3.735.442q.875.505,1.744.918c.435.205.846.382,1.257.546,6.614,2.623,12.536.967,15.184-5.195,3.975-9.241-.92-25.1-10.926-35.408Q343.084,86.689,342.581,86.212Z" transform="translate(-327.952 -86.212)"/></g></g><g transform="translate(170.533 91.872)"><g transform="translate(0.066)"><path class="s" d="M354.738,102.216l0,1.514a1.16,1.16,0,0,1-1.742,1l-7.14-4.143a1.155,1.155,0,0,1-.577-1.006l0-1.514a1.159,1.159,0,0,1,1.742-1l7.14,4.141A1.16,1.16,0,0,1,354.738,102.216Z" transform="translate(-345.275 -96.91)"/></g><g transform="translate(0.043 7.532)"><path class="s" d="M377.34,118.918l0,1.518a1.159,1.159,0,0,1-1.74,1L345.845,104.26a1.162,1.162,0,0,1-.581-1.009l0-1.516a1.161,1.161,0,0,1,1.74-1l29.753,17.178A1.156,1.156,0,0,1,377.34,118.918Z" transform="translate(-345.264 -100.577)"/></g><g class="ax" transform="translate(0 22.607)"><path class="s" d="M365.052,119.177l0,1.516a1.158,1.158,0,0,1-1.738,1L345.824,111.6a1.162,1.162,0,0,1-.581-1.009l.006-1.516a1.159,1.159,0,0,1,1.738-1l17.486,10.1A1.157,1.157,0,0,1,365.052,119.177Z" transform="translate(-345.243 -107.916)"/></g><g transform="translate(0.023 15.07)"><path class="af" d="M372.715,119.924l0,1.518a1.158,1.158,0,0,1-1.738,1l-25.14-14.514a1.156,1.156,0,0,1-.579-1.006l0-1.518a1.159,1.159,0,0,1,1.74-1l25.138,14.514A1.157,1.157,0,0,1,372.715,119.924Z" transform="translate(-345.254 -104.246)"/></g></g><g transform="translate(253.462 187.636)"><path class="ay" d="M401.383,145.681c-8.666-5-15.738-.974-15.767,8.987s7,22.085,15.664,27.089,15.7.994,15.73-8.964S410.051,150.687,401.383,145.681Z" transform="translate(-385.616 -143.531)"/><g transform="translate(8.6 11.062)"><path class="az" d="M396.931,149.889c-3.917-2.262-7.115-.44-7.128,4.063a15.591,15.591,0,0,0,7.082,12.246c3.919,2.262,7.1.45,7.111-4.053A15.6,15.6,0,0,0,396.931,149.889Z" transform="translate(-389.803 -148.917)"/></g></g><g transform="translate(30.199 86.32)"><path class="ba" d="M293.828,103.633v2.7a2.07,2.07,0,0,1-3.1,1.8l-12.766-7.356a2.068,2.068,0,0,1-1.037-1.793v-2.7a2.069,2.069,0,0,1,3.1-1.793l12.768,7.354A2.07,2.07,0,0,1,293.828,103.633Z" transform="translate(-276.923 -94.207)"/><g transform="translate(0.002 13.442)"><path class="ba" d="M334.255,133.316v2.707a2.07,2.07,0,0,1-3.1,1.8l-53.19-30.493a2.073,2.073,0,0,1-1.041-1.793v-2.709a2.07,2.07,0,0,1,3.1-1.8l53.19,30.493A2.07,2.07,0,0,1,334.255,133.316Z" transform="translate(-276.924 -100.751)"/></g><g class="ax" transform="translate(0.01 40.345)"><path class="ba" d="M312.326,133.842l0,2.707a2.07,2.07,0,0,1-3.1,1.8l-31.261-17.92a2.071,2.071,0,0,1-1.039-1.8v-2.707a2.067,2.067,0,0,1,3.1-1.8l31.261,17.92A2.068,2.068,0,0,1,312.326,133.842Z" transform="translate(-276.928 -113.849)"/></g><g transform="translate(0.006 26.894)"><path class="ba" d="M326.008,135.135v2.709a2.07,2.07,0,0,1-3.1,1.8l-44.943-25.764a2.072,2.072,0,0,1-1.039-1.8v-2.707a2.069,2.069,0,0,1,3.1-1.8l44.943,25.764A2.069,2.069,0,0,1,326.008,135.135Z" transform="translate(-276.926 -107.3)"/></g></g><g transform="translate(190.307 276.01)"><g class="b"><g transform="translate(40.185 44.397)"><path class="bb" d="M374.573,212.383l7.252-4.215-.139,49.237-7.253,4.215Z" transform="translate(-374.433 -208.169)"/></g><path class="bc" d="M398.133,233.852l0-.06,0-.06,0-.06-.006-.06-.01-.062-.01-.064-.012-.064,0-.014v0l-.012-.047-.016-.064-.018-.068-.023-.066-.021-.062-.025-.064-.025-.064-.029-.064-.029-.066-.033-.066v0l-22.576-44.945-.029-.053c-.018-.037-.039-.074-.06-.111-.037-.06-.074-.117-.111-.175l-.074-.1-.053-.07-.049-.06-.047-.057-.027-.029,0,0-.021-.023-.053-.053-.053-.053-.057-.053-.058-.051-.057-.047-.055-.041-.055-.041-.055-.035-.053-.033-.012-.006-.041-.025-.051-.027-.051-.025-.053-.021-.051-.021-.051-.016-.053-.014-.053-.012-.055-.008-.021,0h0l-.033,0a.611.611,0,0,0-.062,0l-.064,0c-.025,0-.049.006-.072.01a.555.555,0,0,0-.088.025.708.708,0,0,0-.107.047l-7.253,4.215a.692.692,0,0,1,.425-.08h0a1.265,1.265,0,0,1,.483.17,2.245,2.245,0,0,1,.532.44l0,0a2.985,2.985,0,0,1,.45.657L390.6,236.991a2.849,2.849,0,0,1,.23.631v0a1.871,1.871,0,0,1,.047.55v0a1.107,1.107,0,0,1-.115.427l0,.008a.679.679,0,0,1-.253.273l7.253-4.215a.648.648,0,0,0,.218-.212c.012-.018.023-.041.035-.062l0-.008.012-.021c.012-.027.023-.051.033-.08l.023-.066.019-.068.012-.062.008-.064.006-.057,0-.01v0l0-.047Z" transform="translate(-343.001 -186.555)"/><g transform="translate(0 4.214)"><path class="bd" d="M378.907,188.782a2.674,2.674,0,0,1,.984,1.1l22.576,44.945c.668,1.337.072,2.416-.992,1.8L395.194,233l-.14,49.236L362.074,263.2l.14-49.238-6.07-3.5c-1.078-.622-1.666-2.383-.98-2.939l22.757-18.772A.862.862,0,0,1,378.907,188.782Z" transform="translate(-354.87 -188.607)"/></g></g></g></g><g transform="translate(437.747 393.462)"><g transform="translate(0 27.619)"><path class="s" d="M252.612,248.252l65.246,66.6,63.368-16.476-65.245-66.6Z" transform="translate(-252.612 -231.776)"/><g transform="translate(32.57 14.149)"><g class="b" transform="translate(5.488)"><g transform="translate(1.884)"><path class="d" d="M302.17,245.07l-6.246,2.364c-4.7-3.683-12.834-4.987-18.351-2.9-.113.043-.22.088-.331.134l-5.184-4.264c.111-.045.222-.09.337-.131C281.358,236.88,294.609,239.035,302.17,245.07Z" transform="translate(-272.057 -238.665)"/></g><g transform="translate(26.532 7.07)"><path class="d" d="M290.314,242.107c6.062,5.363,5.71,11.792-.45,15.541l-5.343-4.4c2.824-2.321,2.759-5.8-.464-8.781Z" transform="translate(-284.057 -242.107)"/></g><g transform="translate(0 17.104)"><path class="ak" d="M302.643,252.973a18.689,18.689,0,0,1-2.058.922c-8.837,3.34-21.833,1.3-29.445-4.539l6.255-2.364c4.743,3.484,12.624,4.679,18.01,2.642a10.41,10.41,0,0,0,1.98-.986Z" transform="translate(-271.14 -246.992)"/></g></g><g transform="translate(0 2.134)"><path class="ak" d="M280.121,243.991c-4.379,2.284-4.769,6.534-.731,10.028l-6.246,2.364c-6.9-5.852-6.041-13.068,1.769-16.679Z" transform="translate(-268.468 -239.704)"/></g></g></g><g transform="translate(61.208 227.32)"><g transform="translate(0 140.955)"><path class="r" d="M284.782,400.173s-5.117,3.517-.32,11.83,8.954,3.2,19.824,11.511,14.707,9.911,20.463,9.272,9.274-3.516,10.233-6.715-1.918-8.633-1.918-8.633Z" transform="translate(-282.41 -394.931)"/><path class="q" d="M330.094,403.182s2.239,10.872,3.517,19.185c.32,3.837-4.8,9.058-12.15,8.74s-11.511-2.559-14.068-5.755-18.544-9.379-21.422-11.938-3.519-10.231-2.239-12.15a9.653,9.653,0,0,1,11.191-2.878c5.117,2.239,9.272,6.394,19.505,7.035S330.094,403.182,330.094,403.182Z" transform="translate(-281.68 -397.621)"/></g><g transform="translate(50.731 1.416)"><g transform="translate(0 111.828)"><path class="r" d="M309.48,386.682s-5.117,3.517-.32,11.829,8.954,3.2,19.824,11.511,14.709,9.913,20.465,9.272,9.272-3.517,10.231-6.715-1.918-8.631-1.918-8.631Z" transform="translate(-307.108 -381.441)"/><path class="q" d="M354.791,389.69s2.239,10.872,3.519,19.185c.318,3.837-4.8,9.06-12.152,8.74s-11.509-2.557-14.068-5.756-18.544-9.379-21.422-11.936-3.517-10.233-2.239-12.15a9.652,9.652,0,0,1,11.193-2.878c5.115,2.237,9.272,6.394,19.5,7.033S354.791,389.69,354.791,389.69Z" transform="translate(-306.377 -384.13)"/></g><path class="be" d="M311.977,358.615c2.559,20.463,12.791,74.181,14.5,92.939,0,0,4.264,6.822,17.053,5.115l6.07-2.529a5.883,5.883,0,0,0,3.586-6.16c-1.286-10.344-4.18-36.392-2.835-51.849,1.7-19.61-3.412-31.547-3.412-31.547.427-6.394,1.28-28.564-11.509-34.533,0,0-31.335-5.755-23.449,28.564" transform="translate(-303.317 -329.688)"/></g><path class="bf" d="M363.591,340.157l-3.412,6.822s-52.436,2.557-66.5,17.905c0,0-9.379,1.7-6.822,22.17s12.789,74.179,14.5,92.936c0,0,4.262,6.822,17.053,5.117l6.07-2.529a5.883,5.883,0,0,0,3.586-6.16c-1.286-10.344-4.18-36.392-2.837-51.849,1.707-19.61-3.41-31.548-3.41-31.548a268.017,268.017,0,0,1,47.749,14.5c24.725,10.231,46.042-1.7,55.421-6.822s12.789-8.526,12.789-8.526a38.993,38.993,0,0,0,23.022-9.379c11.084-9.379,12.791-34.106.852-48.6S363.591,340.157,363.591,340.157Z" transform="translate(-278.193 -328.999)"/></g><g transform="translate(144.362 74.347)"><path class="bg" d="M333.117,289.055s8.473-3.141,7.916-14.459c-2.572-11.145-5.682-11.9-5.682-11.9s11.854-10.952,26.152-7.5c0,0,8.83,17.92,18.819,25.594C380.324,280.792,372.34,301.846,333.117,289.055Z" transform="translate(-312.116 -254.526)"/><g transform="translate(0 13.64)"><path class="ao" d="M356.456,288.28s31.335-26.22,37.731-26.859c7.672-.639,17.265,1.919,19.824,12.791s-3.2,19.183-8.954,22.381-56.273,27.5-65.227,27.5-14.707-7.674-8.954-17.267S356.456,288.28,356.456,288.28Z" transform="translate(-316.911 -260.994)"/><path class="ap" d="M372.031,268.334s-33.253,11.084-42.632,26.432-7.674,32.4-.852,56.275-6.822,45.19-3.41,57.978,27.284,24.727,62.242,18.76,37.516-19.612,40.075-27.286-6.822-44.337,1.7-74.179-8.526-50.306-15.348-55.423S393.348,258.956,372.031,268.334Z" transform="translate(-322.893 -258.528)"/><path class="ao" d="M413.006,270.892c-6.822-5.115-20.463-11.936-41.78-2.557,0,0-33.253,11.084-42.632,26.432a43.068,43.068,0,0,0-4.938,11.534c13.464-17.5,32.573-25.187,45.013,4.667,11.61,27.861-17.926,109.753-43.731,84.005-1.087,5.371-1.656,10.116-.606,14.048,3.41,12.791,27.284,24.727,62.242,18.76s37.516-19.612,40.075-27.286-6.822-44.337,1.7-74.179S419.828,276.008,413.006,270.892Z" transform="translate(-322.088 -258.528)"/><path class="s" d="M331.353,285.468s8.952,5.755,31.335,2.557,23.661-19.185,21.742-20.463-5.756-6.4-5.756-6.4-23.661,10.872-31.974,14.07-12.791,5.115-12.791,5.115Z" transform="translate(-313.975 -261.166)"/></g></g><g transform="translate(143.571)"><path class="bh" d="M324.249,256.58s-1.918,23.02,10.233,38.368,24.3,6.394,31.974,2.557,10.87-10.231,13.43-28.776,2.557-36.452-10.872-42.207-28.137-7.033-36.449,7.035S324.249,256.58,324.249,256.58Z" transform="translate(-320.789 -213.994)"/><path class="bi" d="M334.921,233.419s-10.872,8.313-10.231,20.463-3.2,14.068-1.919,20.463,11.511,8.315,12.15,17.266,14.068,12.15,21.1,14.707,18.544-5.753,21.742-10.231,2.557-15.987,6.394-26.218,1.918-23.022-1.28-31.974-9.592-10.872-9.592-10.872-3.2-7.033-10.87-8.313S331.084,218.709,334.921,233.419Z" transform="translate(-322.508 -218.331)"/></g><g transform="translate(97.443 144.893)"><g transform="translate(38.76 187.87)"><g transform="translate(0 23.042)"><g class="b"><path class="c" d="M441.184,410.87c-1.161,12.9-13.3,21.666-24.259,26.387-11.93,5.141-25.049,7.216-37.994,7.05-13.212-.171-26.7-2.7-38.614-8.559-10.4-5.115-21.43-14.395-21.4-27.015-.025,9.19.618,16.784,7.241,23.959,8.526,9.237,21.362,14.212,33.436,16.7,23.558,4.864,55.633,2.514,73.528-15.621,7.2-7.3,8.183-14.987,8.21-24.692Q441.3,409.981,441.184,410.87Z" transform="translate(-318.921 -373.439)"/><g transform="translate(0.001)"><path class="d" d="M423.254,401.931c23.979,13.844,24.133,36.3.31,50.14s-62.61,13.844-86.589,0-24.078-36.293-.253-50.138S399.274,388.089,423.254,401.931Z" transform="translate(-318.921 -391.55)"/></g></g></g><g transform="translate(53.18)"><g class="b"><g transform="translate(9.421 5.439)"><path class="e" d="M358.91,382.98l-.152,53.5-9.36,5.439.152-53.5Z" transform="translate(-349.397 -382.98)"/></g><g transform="translate(0 5.44)"><path class="f" d="M354.384,388.42l-.152,53.5-9.421-5.439.152-53.5Z" transform="translate(-344.811 -382.98)"/></g><g transform="translate(0.152)"><path class="g" d="M363.666,385.772l-9.36,5.44-9.421-5.439,9.36-5.44Z" transform="translate(-344.885 -380.332)"/></g></g></g></g><path class="an" d="M520.045,299.5a11,11,0,0,0-14.633-10c-30.587,10.73-100.689,36.137-105.193,45.144-4.291,8.584-18.16,56.534-24.988,80.555a11,11,0,0,1-16.186,6.454l-42.371-24.988a11.017,11.017,0,0,0-16.463,11.3l6.8,40.816a11.022,11.022,0,0,0,5.38,7.742l45.335,26.044a87.171,87.171,0,0,0,82.411,2.381l34.95-17.474a87.178,87.178,0,0,0,48.133-81.161Z" transform="translate(-300.051 -288.87)"/><path class="h" d="M400.218,312.172c-4.291,8.584-18.16,56.534-24.988,80.555a11,11,0,0,1-16.186,6.454l-42.371-24.988a11.017,11.017,0,0,0-16.463,11.3l6.8,40.816a10.906,10.906,0,0,0,.863,2.711q.81,1.276,1.637,2.543a10.917,10.917,0,0,0,2.88,2.487L357.728,460.1a87.07,87.07,0,0,0,30.663,10.636c36.774-28.533,32.138-147.641,18.8-157.642a18.417,18.417,0,0,0-5.252-2.9A7.2,7.2,0,0,0,400.218,312.172Z" transform="translate(-300.051 -266.399)"/></g><g transform="translate(32.148 78.895)"><path class="ap" d="M323.25,307.373s31.333-26.218,37.729-26.857c7.674-.641,17.264,1.919,19.824,12.789s-3.2,19.185-8.954,22.381-56.273,27.5-65.227,27.5-14.707-7.674-8.952-17.264S323.25,307.373,323.25,307.373Z" transform="translate(-239.699 -231.774)"/><path class="bh" d="M307.687,290.773a23.009,23.009,0,0,1-1.918-5.435c-.318-2.239.959-5.117-.318-10.231s-3.519-9.593-4.478-13.109c-2.557-3.2-4.8,2.557-2.878,7.354s1.28,7.674-.639,7.992-9.911-4.476-12.15-7.033S270.279,255.282,269,256.88s-1.28,3.2,3.2,7.994,6.074,7.033,6.394,8.313,0,2.557,1.6,6.394.32,6.394,3.2,9.911,8.313,4.157,10.87,6.4l2.559,2.237Z" transform="translate(-268.263 -256.74)"/><path class="ap" d="M322.391,352.114s-13.429,2.559-20.676-12.363-19.61-55-21.315-58.831c0,0,4.262-9.379,14.921-8.954,0,0,11.936,23.447,18.758,34.106S345.2,347.852,322.391,352.114Z" transform="translate(-255.469 -240.704)"/></g></g><g transform="translate(126.393 302.399)"><g transform="translate(130.474 4.79)"><path class="n" d="M204.846,198.722s4.168-2.652,6.633-1.894a107.713,107.713,0,0,0,13.639,2.274c2.654.189,7.958-4.548,8.9-5.306s1.516-2.463,2.654-3.6,1.7-.947,1.7-3.032,2.083-3.979,3.032-4.926,4.735-3.221,4.357-4.926-2.274-.758-3.41-.38-5.495,4.359-7.388,5.495-6.442,2.843-8.715,2.843a18.719,18.719,0,0,1-4.359-.569s-.567,0,1.7-.758,3.6-.189,5.495-.569,2.843-1.514,2.654-2.463-2.654-.947-3.6-.947a74.72,74.72,0,0,1-8.9-.189c-2.274-.378-6.062,3.41-6.82,4.168s-4.737,1.894-6.822,2.085S204.846,198.722,204.846,198.722Z" transform="translate(-122.518 -176.33)"/><path class="i" d="M165.346,194.423S169.311,207.5,185.891,207s57.816-8.142,62.006-8.411c0,0,6.331-8.128,1.008-17.371,0,0-26.311.3-38.916-.795S158.541,172.239,165.346,194.423Z" transform="translate(-164.553 -174.06)"/></g><path class="i" d="M144.538,225.346s-6.93-40.266-11.392-44.892c-5.437-5.452-14.407-9.708-23.392-3.073s-9.973,16.7-7.653,22.86,25.119,57.374,31.945,63.167,16.18,3.664,18-7.374S144.538,225.346,144.538,225.346Z" transform="translate(-101.033 -173.998)"/><path class="n" d="M156.725,209.927s5.437.32,7.354.32,16.628-1.28,19.185-1.28,2.557,2.878,2.557,2.878,2.559,4.155,2.559,5.756a15.852,15.852,0,0,0,.639,5.435c.639,1.6-.32,2.878-.959,4.157s-2.239,1.918-3.837,2.878a5.165,5.165,0,0,1-4.8.318c-1.278-.639-1.278-.959.32-1.919a17.005,17.005,0,0,0,2.878-2.237,8.777,8.777,0,0,1-4.8,2.237c-2.878.32-7.354.32-9.913-.959S160.883,224,160.883,224l-5.117-.639Z" transform="translate(-43.34 -137.136)"/><path class="i" d="M116.987,223.064s3.964,13.082,20.545,12.579,57.816-8.142,62.006-8.414c0,0,6.331-8.128,1.009-17.371,0,0-26.311.3-38.916-.793S110.182,200.881,116.987,223.064Z" transform="translate(-85.052 -139.079)"/></g></g></svg>